<?xml version="1.0" standalone="no"?>
<!DOCTYPE svg PUBLIC "-//W3C//DTD SVG 20010904//EN"
 "http://www.w3.org/TR/2001/REC-SVG-20010904/DTD/svg10.dtd">
<svg version="1.0" xmlns="http://www.w3.org/2000/svg"
 width="400.000000pt" height="400.000000pt" viewBox="0 0 400.000000 400.000000"
 preserveAspectRatio="xMidYMid meet">

<g transform="translate(0.000000,400.000000) scale(0.100000,-0.100000)"
fill="#000000" stroke="none">
<path d="M2001 3947 c-1 -28 -46 -127 -180 -390 -98 -193 -357 -707 -576
-1142 -219 -434 -498 -988 -620 -1230 -122 -242 -296 -586 -385 -765 -90 -179
-172 -337 -182 -352 -11 -16 -28 -28 -39 -28 -12 0 -19 -7 -19 -20 0 -20 7
-20 1990 -20 1095 0 1990 3 1990 7 0 8 -714 1445 -1477 2973 -417 836 -502
999 -502 967z"/>
</g>
</svg>
